<?xml version="1.0" standalone="no"?><!DOCTYPE svg PUBLIC "-//W3C//DTD SVG 1.1//EN" "http://www.w3.org/Graphics/SVG/1.1/DTD/svg11.dtd"><svg t="1655259959683" class="icon" viewBox="0 0 1024 1024" version="1.1" xmlns="http://www.w3.org/2000/svg" p-id="1285" xmlns:xlink="http://www.w3.org/1999/xlink" width="200" height="200"><defs><style type="text/css">@font-face { font-family: feedback-iconfont; src: url("//at.alicdn.com/t/font_1031158_u69w8yhxdu.woff2?t=1630033759944") format("woff2"), url("//at.alicdn.com/t/font_1031158_u69w8yhxdu.woff?t=1630033759944") format("woff"), url("//at.alicdn.com/t/font_1031158_u69w8yhxdu.ttf?t=1630033759944") format("truetype"); }
</style></defs><path d="M587.9 241.8l-27 37.4 20.9-44.4V144H442.9v90.8l25.6 54.2-34.1-47.2-190 521.9 25.5 179.8 224.9-617.9h32.7l224.9 617.9 25.5-179.8z" fill="#959FAF" p-id="1286"></path><path d="M549.8 144v58.7L507 293.5h-36.4l15.1 32.1h53.4l42.7-90.8V144z" fill="#74808C" p-id="1287"></path><path d="M495.4 293.5h-32.6L257.6 857.1l12.3 86.4 224.9-617.9h12.3zM587.9 241.8l-13.5 18.7 171.5 471.2-19.8 139.5 26.3 72.3 25.5-179.8z" fill="#74808C" p-id="1288"></path><path d="M491 230.6c-5.9 0-10.7-4.8-10.7-10.7v-27.8c0-5.9 4.8-10.7 10.7-10.7h26.7c5.9 0 10.7 4.8 10.7 10.7 0 5.9-4.8 10.7-10.7 10.7h-16V220c0 5.8-4.8 10.6-10.7 10.6z" fill="#FFFFFF" p-id="1289"></path><path d="M832.8 571.3H724.9L603 236.3c-1.1-2.9-2.9-5.3-5.1-7V144c0-8.9-7.2-16-16-16h-53.4V79.9c0-8.9-7.2-16-16-16-8.9 0-16 7.2-16 16V128h-53.4c-8.9 0-16 7.2-16 16v83.7c-3.4 1.8-6.2 4.7-7.6 8.6l-121.9 335H191.9c-8.9 0-16 7.2-16 16 0 8.9 7.2 16 16 16h93.8l-56.4 154.9c-0.9 2.5-1.2 5.1-0.8 7.7L254 945.8c1 7.3 6.9 12.9 14.2 13.7 0.6 0.1 1.1 0.1 1.7 0.1 6.7 0 12.7-4.2 15-10.5l126.5-347.6c2.2 1.2 4.8 1.9 7.5 1.9h77.4v37.4c0 8.9 7.2 16 16 16 8.9 0 16-7.2 16-16V533.9c0-8.9-7.2-16-16-16-8.9 0-16 7.2-16 16v37.4h-73.9L506 341.6h10.2l83.6 229.7h-28.7c-8.9 0-16 7.2-16 16 0 8.9 7.2 16 16 16h32c2.8 0 5.3-0.8 7.6-2L737.3 949c2.3 6.4 8.4 10.5 15 10.5 0.6 0 1.1 0 1.7-0.1 7.3-0.8 13.2-6.4 14.2-13.7L793.8 766c0.4-2.6 0.1-5.3-0.8-7.7l-56.4-154.9h96.3c8.9 0 16-7.2 16-16 0-8.9-7.2-16.1-16.1-16.1zM459 160h106.8v71.2l-36.9 78.4h-33.1L459 231.2V160zM276.8 877.8l-15.9-112.4 61.3-168.5c1.9-2.5 3-5.5 3.2-8.7l116.1-319 29.7 63.2c0.7 1.5 1.6 2.8 2.7 4L276.8 877.8z m468.7 0L549.1 338.1c1.9-1.5 3.4-3.4 4.5-5.7l28.3-60.2 179.5 493.3-15.9 112.3z" fill="#2D3742" p-id="1290"></path></svg>