<?xml version="1.0" standalone="no"?><!DOCTYPE svg PUBLIC "-//W3C//DTD SVG 1.1//EN" "http://www.w3.org/Graphics/SVG/1.1/DTD/svg11.dtd"><svg t="1655259943963" class="icon" viewBox="0 0 1024 1024" version="1.1" xmlns="http://www.w3.org/2000/svg" p-id="962" xmlns:xlink="http://www.w3.org/1999/xlink" width="200" height="200"><defs><style type="text/css">@font-face { font-family: feedback-iconfont; src: url("//at.alicdn.com/t/font_1031158_u69w8yhxdu.woff2?t=1630033759944") format("woff2"), url("//at.alicdn.com/t/font_1031158_u69w8yhxdu.woff?t=1630033759944") format("woff"), url("//at.alicdn.com/t/font_1031158_u69w8yhxdu.ttf?t=1630033759944") format("truetype"); }
</style></defs><path d="M377.5 881.8l-260.1 25.1 25.2-260 167.8-100.7L478.2 714z" fill="#959FAF" p-id="963"></path><path d="M289.4 735m-35.6 0a35.6 35.6 0 1 0 71.2 0 35.6 35.6 0 1 0-71.2 0Z" fill="#E4EFF4" p-id="964"></path><path d="M285.253 521.073L687.876 118.45l218.07 218.07-402.623 402.623z" fill="#51B5ED" p-id="965"></path><path d="M494.1 405.7c-3 0-6.1-1.2-8.4-3.5-4.6-4.6-4.6-12.1 0-16.8l167.8-167.8c4.6-4.6 12.1-4.6 16.8 0 4.6 4.6 4.6 12.1 0 16.8L502.5 402.2c-2.3 2.3-5.3 3.5-8.4 3.5z" fill="#FFFFFF" p-id="966"></path><path d="M700.4 187.6m-11.9 0a11.9 11.9 0 1 0 23.8 0 11.9 11.9 0 1 0-23.8 0Z" fill="#FFFFFF" p-id="967"></path><path d="M443.991 679.804l402.623-402.623 59.325 59.326L503.317 739.13z" fill="#2996D3" p-id="968"></path><path d="M442.6 678.4L341.9 846.2l-224.2 57.6-0.3 3.1 260.1-25.1L478.2 714z" fill="#74808C" p-id="969"></path><path d="M918.6 323.9c-7-7-18.2-7-25.2 0L578.8 638.5l-39.3-39.3c-7-7-18.2-7-25.2 0-7 6.9-7 18.2 0 25.2l39.3 39.3-50.3 50.3-192.9-192.9 50.3-50.3 96.5 96.5c3.5 3.5 8 5.2 12.6 5.2s9.1-1.7 12.6-5.2c7-6.9 7-18.2 0-25.2l-96.5-96.5L700.5 131c7-6.9 7-18.2 0-25.2s-18.2-7-25.2 0L272.6 508.5c-7 6.9-7 18.2 0 25.2l9.1 9.1-148.2 88.9c-4.8 2.9-8 7.9-8.6 13.5l-25.2 260c-0.5 5.3 1.4 10.5 5.1 14.3 3.4 3.4 7.9 5.2 12.6 5.2 0.6 0 1.1 0 1.7-0.1l260.1-25.2c5.6-0.5 10.6-3.7 13.5-8.6l88.9-148.2 9.1 9.1c3.3 3.3 7.9 5.2 12.6 5.2 4.7 0 9.2-1.9 12.6-5.2l75.5-75.5L918.6 349c6.9-6.9 6.9-18.1 0-25.1z m-551.7 541l-201.8 19.5 101.3-101.3c7.2 3.4 15.1 5.2 23 5.2 13.7 0 27.3-5.2 37.7-15.6 10.1-10.1 15.6-23.5 15.6-37.8 0-14.3-5.6-27.7-15.6-37.7-10.1-10.1-23.5-15.6-37.8-15.6-14.3 0-27.7 5.6-37.8 15.6-16.4 16.4-19.8 40.9-10.4 60.7L139.9 859.3l19.5-201.8 148.2-88.9 148.1 148.1-88.8 148.2z m-90.1-142.5c3.4-3.4 7.8-5.2 12.6-5.2s9.2 1.9 12.6 5.2c3.4 3.4 5.2 7.8 5.2 12.6s-1.9 9.2-5.2 12.6c-6.9 6.9-18.2 6.9-25.2 0-6.9-7-6.9-18.3 0-25.2z" fill="#2D3742" p-id="970"></path></svg>