<?xml version="1.0" standalone="no"?><!DOCTYPE svg PUBLIC "-//W3C//DTD SVG 1.1//EN" "http://www.w3.org/Graphics/SVG/1.1/DTD/svg11.dtd"><svg t="1655259982803" class="icon" viewBox="0 0 1024 1024" version="1.1" xmlns="http://www.w3.org/2000/svg" p-id="4295" xmlns:xlink="http://www.w3.org/1999/xlink" width="200" height="200"><defs><style type="text/css">@font-face { font-family: feedback-iconfont; src: url("//at.alicdn.com/t/font_1031158_u69w8yhxdu.woff2?t=1630033759944") format("woff2"), url("//at.alicdn.com/t/font_1031158_u69w8yhxdu.woff?t=1630033759944") format("woff"), url("//at.alicdn.com/t/font_1031158_u69w8yhxdu.ttf?t=1630033759944") format("truetype"); }
</style></defs><path d="M841.34 959.36H182.66c-65.06 0-117.99-52.94-117.99-118.02V182.69c0-65.08 52.94-118.04 117.99-118.04h658.68c65.06 0 117.99 52.96 117.99 118.04v658.65c0 65.08-52.93 118.02-117.99 118.02zM182.66 142.17c-22.31 0-40.51 18.18-40.51 40.51v658.65c0 22.34 18.2 40.49 40.51 40.49h658.68c22.31 0 40.51-18.15 40.51-40.49V182.69c0-22.34-18.2-40.51-40.51-40.51H182.66z" fill="#1296db" p-id="4296"></path></svg>